<svg width="16" height="17" viewBox="0 0 16 17" fill="none" xmlns="http://www.w3.org/2000/svg">
                <g clip-path="url(#clip0_103_2994)">
                  <path d="M12.6667 1.48421H12V0.817546C12 0.640735 11.9298 0.471165 11.8047 0.346141C11.6797 0.221117 11.5101 0.150879 11.3333 0.150879C11.1565 0.150879 10.987 0.221117 10.8619 0.346141C10.7369 0.471165 10.6667 0.640735 10.6667 0.817546V1.48421H5.33333V0.817546C5.33333 0.640735 5.2631 0.471165 5.13807 0.346141C5.01305 0.221117 4.84348 0.150879 4.66667 0.150879C4.48986 0.150879 4.32029 0.221117 4.19526 0.346141C4.07024 0.471165 4 0.640735 4 0.817546V1.48421H3.33333C2.4496 1.48527 1.60237 1.8368 0.97748 2.46169C0.352588 3.08658 0.00105857 3.93382 0 4.81755L0 12.8175C0.00105857 13.7013 0.352588 14.5485 0.97748 15.1734C1.60237 15.7983 2.4496 16.1498 3.33333 16.1509H12.6667C13.5504 16.1498 14.3976 15.7983 15.0225 15.1734C15.6474 14.5485 15.9989 13.7013 16 12.8175V4.81755C15.9989 3.93382 15.6474 3.08658 15.0225 2.46169C14.3976 1.8368 13.5504 1.48527 12.6667 1.48421ZM1.33333 4.81755C1.33333 4.28711 1.54405 3.7784 1.91912 3.40333C2.29419 3.02826 2.8029 2.81755 3.33333 2.81755H12.6667C13.1971 2.81755 13.7058 3.02826 14.0809 3.40333C14.456 3.7784 14.6667 4.28711 14.6667 4.81755V5.48421H1.33333V4.81755ZM12.6667 14.8175H3.33333C2.8029 14.8175 2.29419 14.6068 1.91912 14.2318C1.54405 13.8567 1.33333 13.348 1.33333 12.8175V6.81755H14.6667V12.8175C14.6667 13.348 14.456 13.8567 14.0809 14.2318C13.7058 14.6068 13.1971 14.8175 12.6667 14.8175Z" fill="currentColor" />
                  <path d="M8 11.1509C8.55228 11.1509 9 10.7032 9 10.1509C9 9.59859 8.55228 9.15088 8 9.15088C7.44772 9.15088 7 9.59859 7 10.1509C7 10.7032 7.44772 11.1509 8 11.1509Z" fill="currentColor" />
                  <path d="M4.6665 11.1509C5.21879 11.1509 5.6665 10.7032 5.6665 10.1509C5.6665 9.59859 5.21879 9.15088 4.6665 9.15088C4.11422 9.15088 3.6665 9.59859 3.6665 10.1509C3.6665 10.7032 4.11422 11.1509 4.6665 11.1509Z" fill="currentColor" />
                  <path d="M11.3335 11.1509C11.8858 11.1509 12.3335 10.7032 12.3335 10.1509C12.3335 9.59859 11.8858 9.15088 11.3335 9.15088C10.7812 9.15088 10.3335 9.59859 10.3335 10.1509C10.3335 10.7032 10.7812 11.1509 11.3335 11.1509Z" fill="currentColor" />
                </g>
                <defs>
                  <clipPath id="clip0_103_2994">
                    <rect width="16" height="16" fill="white" transform="translate(0 0.150879)" />
                  </clipPath>
                </defs>
              </svg>