<svg width="15" height="14" viewBox="0 0 15 14" fill="none" xmlns="http://www.w3.org/2000/svg">
<g clip-path="url(#clip0_300_890)">
<path d="M11.3919 2.33333H10.7503C10.6149 1.67499 10.2567 1.08345 9.73599 0.658419C9.21532 0.233386 8.56405 0.000848473 7.89193 0L6.72526 0C6.05314 0.000848473 5.40186 0.233386 4.8812 0.658419C4.36053 1.08345 4.00232 1.67499 3.86693 2.33333H3.22526C2.452 2.33426 1.71067 2.64185 1.16389 3.18863C0.617108 3.73541 0.30952 4.47674 0.308594 5.25L0.308594 11.0833C0.30952 11.8566 0.617108 12.5979 1.16389 13.1447C1.71067 13.6915 2.452 13.9991 3.22526 14H11.3919C12.1652 13.9991 12.9065 13.6915 13.4533 13.1447C14.0001 12.5979 14.3077 11.8566 14.3086 11.0833V5.25C14.3077 4.47674 14.0001 3.73541 13.4533 3.18863C12.9065 2.64185 12.1652 2.33426 11.3919 2.33333ZM6.72526 1.16667H7.89193C8.25258 1.16816 8.60396 1.28105 8.898 1.48988C9.19204 1.69872 9.41438 1.9933 9.53459 2.33333H5.08259C5.20281 1.9933 5.42515 1.69872 5.71919 1.48988C6.01323 1.28105 6.36461 1.16816 6.72526 1.16667ZM3.22526 3.5H11.3919C11.8561 3.5 12.3012 3.68437 12.6294 4.01256C12.9576 4.34075 13.1419 4.78587 13.1419 5.25V7H1.47526V5.25C1.47526 4.78587 1.65963 4.34075 1.98782 4.01256C2.31601 3.68437 2.76113 3.5 3.22526 3.5ZM11.3919 12.8333H3.22526C2.76113 12.8333 2.31601 12.649 1.98782 12.3208C1.65963 11.9926 1.47526 11.5475 1.47526 11.0833V8.16667H6.72526V8.75C6.72526 8.90471 6.78672 9.05308 6.89611 9.16248C7.00551 9.27187 7.15388 9.33333 7.30859 9.33333C7.4633 9.33333 7.61168 9.27187 7.72107 9.16248C7.83047 9.05308 7.89193 8.90471 7.89193 8.75V8.16667H13.1419V11.0833C13.1419 11.5475 12.9576 11.9926 12.6294 12.3208C12.3012 12.649 11.8561 12.8333 11.3919 12.8333Z" fill="currentColor"/>
</g>
<defs>
<clipPath id="clip0_300_890">
<rect width="14" height="14" fill="white" transform="translate(0.308594)"/>
</clipPath>
</defs>
</svg>
