<svg width="15" height="14" viewBox="0 0 15 14" fill="none" xmlns="http://www.w3.org/2000/svg">
<g clip-path="url(#clip0_300_885)">
<path d="M12.5577 7.24734V6.41667C12.5577 5.02429 12.0046 3.68893 11.02 2.70436C10.0354 1.7198 8.70008 1.16667 7.30769 1.16667C5.9153 1.16667 4.57995 1.7198 3.59538 2.70436C2.61081 3.68893 2.05769 5.02429 2.05769 6.41667V7.24734C1.44587 7.51674 0.945157 7.98814 0.639386 8.58263C0.333615 9.17711 0.241342 9.85859 0.378015 10.513C0.514688 11.1674 0.872011 11.755 1.39016 12.1774C1.90832 12.5998 2.55585 12.8313 3.22436 12.8333C3.53378 12.8333 3.83052 12.7104 4.04931 12.4916C4.26811 12.2728 4.39102 11.9761 4.39102 11.6667V8.16667C4.39102 7.85725 4.26811 7.56051 4.04931 7.34171C3.83052 7.12292 3.53378 7.00001 3.22436 7.00001V6.41667C3.22436 5.3337 3.65456 4.29509 4.42034 3.52932C5.18611 2.76355 6.22472 2.33334 7.30769 2.33334C8.39066 2.33334 9.42927 2.76355 10.195 3.52932C10.9608 4.29509 11.391 5.3337 11.391 6.41667V7.00001C11.0816 7.00001 10.7849 7.12292 10.5661 7.34171C10.3473 7.56051 10.2244 7.85725 10.2244 8.16667V11.6667C10.2244 11.9761 10.3473 12.2728 10.5661 12.4916C10.7849 12.7104 11.0816 12.8333 11.391 12.8333C12.0595 12.8313 12.7071 12.5998 13.2252 12.1774C13.7434 11.755 14.1007 11.1674 14.2374 10.513C14.374 9.85859 14.2818 9.17711 13.976 8.58263C13.6702 7.98814 13.1695 7.51674 12.5577 7.24734ZM3.22436 11.6667C2.76023 11.6667 2.31511 11.4823 1.98692 11.1541C1.65873 10.8259 1.47436 10.3808 1.47436 9.91667C1.47436 9.45254 1.65873 9.00742 1.98692 8.67923C2.31511 8.35105 2.76023 8.16667 3.22436 8.16667V11.6667ZM11.391 11.6667V8.16667C11.8552 8.16667 12.3003 8.35105 12.6285 8.67923C12.9566 9.00742 13.141 9.45254 13.141 9.91667C13.141 10.3808 12.9566 10.8259 12.6285 11.1541C12.3003 11.4823 11.8552 11.6667 11.391 11.6667Z" fill="currentColor"/>
</g>
<defs>
<clipPath id="clip0_300_885">
<rect width="14" height="14" fill="white" transform="translate(0.308594)"/>
</clipPath>
</defs>
</svg>
