<svg width="15" height="14" viewBox="0 0 15 14" fill="none" xmlns="http://www.w3.org/2000/svg">
<g clip-path="url(#clip0_300_895)">
<path d="M7.30859 0C3.44868 0 0.308594 3.14008 0.308594 7C0.308594 10.8599 3.44868 14 7.30859 14C11.1685 14 14.3086 10.8599 14.3086 7C14.3086 3.14008 11.1685 0 7.30859 0ZM7.30859 12.8333C4.09209 12.8333 1.47526 10.2165 1.47526 7C1.47526 6.1285 1.66776 5.30133 2.01193 4.55758L2.98376 5.579C3.13834 5.74117 3.35243 5.83333 3.57643 5.83333H4.71334C4.88134 5.83333 5.04234 5.89983 5.16134 6.01883L5.37893 6.23642C5.49443 6.35192 5.55918 6.50825 5.55918 6.671V7.23275C5.55918 7.45733 5.64843 7.672 5.80709 7.83067L6.50126 8.52483C6.64534 8.66892 6.72643 8.86433 6.72643 9.06792V10.4475C6.72643 10.7987 7.01109 11.0833 7.36226 11.0833H7.48651C7.73443 11.0833 7.95959 10.9392 8.06343 10.7141L9.37068 7.88142C9.44584 7.71854 9.45904 7.53385 9.40782 7.36194C9.35661 7.19003 9.24447 7.04268 9.09243 6.9475L7.59793 6.01358C7.40957 5.89575 7.19186 5.83329 6.96968 5.83333H6.13493C5.95351 5.83333 5.77909 5.761 5.65076 5.63267L5.30543 5.28733C5.26218 5.24415 5.22787 5.19287 5.20446 5.13642C5.18105 5.07996 5.169 5.01945 5.169 4.95833C5.169 4.89722 5.18105 4.8367 5.20446 4.78025C5.22787 4.7238 5.26218 4.67251 5.30543 4.62933L5.61401 4.32075C5.68307 4.25165 5.77215 4.20607 5.86859 4.19046C5.96503 4.17486 6.06393 4.19004 6.15126 4.23383L6.66459 4.4905C6.76743 4.54192 6.88384 4.55967 6.99733 4.54124C7.11082 4.52282 7.21564 4.46915 7.29693 4.38783L7.29868 4.38608C7.38511 4.29975 7.44017 4.18697 7.45508 4.06571C7.46998 3.94446 7.44388 3.8217 7.38093 3.717L6.89268 2.90267C6.84246 2.81971 6.81659 2.72429 6.81804 2.62733C6.81948 2.53036 6.84818 2.43576 6.90084 2.35433C7.07351 2.08775 7.35584 1.65317 7.66851 1.17833C9.57718 1.295 11.2414 2.33333 12.2191 3.8535L11.2916 4.38842C11.0058 4.55292 10.864 4.88717 10.9445 5.20683L11.3103 6.66925C11.3628 6.87925 11.5045 7.05542 11.6982 7.15167L13.0824 7.83883C12.6747 10.6592 10.241 12.8333 7.30976 12.8333H7.30859Z" fill="currentColor"/>
</g>
<defs>
<clipPath id="clip0_300_895">
<rect width="14" height="14" fill="white" transform="translate(0.308594)"/>
</clipPath>
</defs>
</svg>
