<svg width="14" height="17" viewBox="0 0 14 17" fill="none" xmlns="http://www.w3.org/2000/svg">
<path d="M7.00016 4.53143C6.47275 4.53143 5.95718 4.68783 5.51864 4.98085C5.08011 5.27386 4.73832 5.69034 4.53649 6.17761C4.33465 6.66488 4.28184 7.20106 4.38474 7.71834C4.48763 8.23562 4.74161 8.71078 5.11455 9.08372C5.48749 9.45666 5.96264 9.71063 6.47992 9.81353C6.99721 9.91642 7.53338 9.86361 8.02065 9.66178C8.50792 9.45995 8.9244 9.11815 9.21742 8.67962C9.51043 8.24109 9.66683 7.72552 9.66683 7.1981C9.66683 6.49086 9.38588 5.81258 8.88578 5.31248C8.38569 4.81238 7.70741 4.53143 7.00016 4.53143Z" fill="currentColor"/>
<path d="M7.00021 16.5314C6.43884 16.5343 5.88495 16.4026 5.38492 16.1475C4.88489 15.8923 4.45327 15.521 4.12621 15.0648C1.58554 11.5601 0.296875 8.92543 0.296875 7.23343C0.296875 5.4556 1.00312 3.75058 2.26024 2.49346C3.51735 1.23634 5.22237 0.530098 7.00021 0.530098C8.77804 0.530098 10.4831 1.23634 11.7402 2.49346C12.9973 3.75058 13.7035 5.4556 13.7035 7.23343C13.7035 8.92543 12.4149 11.5601 9.87421 15.0648C9.54715 15.521 9.11553 15.8923 8.6155 16.1475C8.11547 16.4026 7.56158 16.5343 7.00021 16.5314ZM7.00021 1.98543C5.60849 1.98702 4.27422 2.54058 3.29012 3.52468C2.30603 4.50878 1.75246 5.84304 1.75087 7.23477C1.75087 8.57477 3.01287 11.0528 5.30354 14.2121C5.498 14.48 5.75312 14.698 6.04802 14.8483C6.34291 14.9986 6.66921 15.077 7.00021 15.077C7.33121 15.077 7.6575 14.9986 7.9524 14.8483C8.2473 14.698 8.50241 14.48 8.69688 14.2121C10.9875 11.0528 12.2495 8.57477 12.2495 7.23477C12.248 5.84304 11.6944 4.50878 10.7103 3.52468C9.7262 2.54058 8.39193 1.98702 7.00021 1.98543Z" fill="currentColor"/>
</svg>
