<svg width="14" height="14" viewBox="0 0 14 14" fill="none" xmlns="http://www.w3.org/2000/svg">
<g clip-path="url(#clip0_91_13)">
<path d="M7.58349 0.583319C7.58349 0.428609 7.64495 0.280236 7.75434 0.17084C7.86374 0.0614437 8.01211 -1.44804e-05 8.16682 -1.44804e-05C9.7134 0.00168395 11.1961 0.616811 12.2897 1.71041C13.3833 2.804 13.9985 4.28674 14.0002 5.83332C14.0002 5.98803 13.9387 6.1364 13.8293 6.2458C13.7199 6.35519 13.5715 6.41665 13.4168 6.41665C13.2621 6.41665 13.1137 6.35519 13.0043 6.2458C12.8949 6.1364 12.8335 5.98803 12.8335 5.83332C12.8321 4.59607 12.34 3.40989 11.4651 2.53502C10.5902 1.66015 9.40407 1.16804 8.16682 1.16665C8.01211 1.16665 7.86374 1.10519 7.75434 0.995798C7.64495 0.886402 7.58349 0.738029 7.58349 0.583319ZM8.16682 3.49999C8.78566 3.49999 9.37915 3.74582 9.81674 4.1834C10.2543 4.62099 10.5002 5.21448 10.5002 5.83332C10.5002 5.98803 10.5616 6.1364 10.671 6.2458C10.7804 6.35519 10.9288 6.41665 11.0835 6.41665C11.2382 6.41665 11.3866 6.35519 11.496 6.2458C11.6054 6.1364 11.6668 5.98803 11.6668 5.83332C11.6659 4.90535 11.2968 4.01565 10.6407 3.35947C9.9845 2.70329 9.0948 2.33425 8.16682 2.33332C8.01211 2.33332 7.86374 2.39478 7.75434 2.50417C7.64495 2.61357 7.58349 2.76194 7.58349 2.91665C7.58349 3.07136 7.64495 3.21973 7.75434 3.32913C7.86374 3.43853 8.01211 3.49999 8.16682 3.49999ZM13.4711 9.7644C13.8091 10.1034 13.999 10.5626 13.999 11.0413C13.999 11.5201 13.8091 11.9793 13.4711 12.3182L12.9402 12.9302C8.16274 17.5041 -3.4631 5.88115 1.04024 1.08849L1.71107 0.505152C2.05044 0.176547 2.50553 -0.00523585 2.9779 -0.000869156C3.45027 0.00349754 3.90192 0.193663 4.23515 0.528486C4.25324 0.546569 5.33415 1.95065 5.33415 1.95065C5.65489 2.2876 5.83343 2.73519 5.83267 3.20039C5.83191 3.66558 5.65191 4.11259 5.33007 4.44849L4.65457 5.29782C5.0284 6.20613 5.57802 7.03163 6.27187 7.72687C6.96571 8.42212 7.7901 8.97341 8.69765 9.34907L9.55224 8.66949C9.88818 8.3479 10.3351 8.16811 10.8002 8.16746C11.2652 8.1668 11.7126 8.34535 12.0495 8.66599C12.0495 8.66599 13.453 9.74632 13.4711 9.7644ZM12.6684 10.6126C12.6684 10.6126 11.2725 9.53865 11.2544 9.52057C11.1342 9.40141 10.9718 9.33456 10.8026 9.33456C10.6334 9.33456 10.471 9.40141 10.3508 9.52057C10.3351 9.5369 9.15849 10.4743 9.15849 10.4743C9.0792 10.5374 8.98484 10.5788 8.8847 10.5943C8.78456 10.6099 8.6821 10.5991 8.58741 10.563C7.41167 10.1252 6.34375 9.43992 5.45598 8.55345C4.5682 7.66698 3.88131 6.60007 3.44182 5.42499C3.40285 5.329 3.39015 5.22437 3.40501 5.12185C3.41988 5.01933 3.46178 4.92262 3.5264 4.84165C3.5264 4.84165 4.46382 3.66449 4.47957 3.64932C4.59873 3.52914 4.66558 3.36676 4.66558 3.19753C4.66558 3.02829 4.59873 2.86591 4.47957 2.74574C4.46149 2.72824 3.38757 1.33115 3.38757 1.33115C3.2656 1.22178 3.10641 1.16321 2.94263 1.16744C2.77886 1.17167 2.6229 1.23838 2.50674 1.3539L1.8359 1.93724C-1.45526 5.89457 8.61949 15.4105 12.0874 12.1333L12.6188 11.5208C12.7434 11.4055 12.8181 11.2462 12.8274 11.0767C12.8367 10.9072 12.7796 10.7408 12.6684 10.6126Z" fill="currentColor"/>
</g>
<defs>
<clipPath id="clip0_91_13">
<rect width="14" height="14" fill="currentColor"/>
</clipPath>
</defs>
</svg>
