<svg width="18" height="17" viewBox="0 0 18 17" fill="none" xmlns="http://www.w3.org/2000/svg">
<path d="M8.53167 0.572235C8.69364 0.139062 9.30636 0.139062 9.46833 0.572235L11.3528 5.61193C11.4231 5.79986 11.5989 5.92758 11.7993 5.93634L17.1747 6.17122C17.6367 6.19141 17.826 6.77413 17.4641 7.06204L13.2534 10.4116C13.0964 10.5365 13.0293 10.7432 13.0829 10.9365L14.5206 16.1214C14.6441 16.567 14.1484 16.9272 13.7628 16.6719L9.27595 13.7024C9.10865 13.5917 8.89135 13.5917 8.72405 13.7024L4.23722 16.6719C3.85157 16.9272 3.35587 16.567 3.47944 16.1214L4.91714 10.9365C4.97075 10.7432 4.9036 10.5365 4.74659 10.4116L0.535885 7.06204C0.173966 6.77413 0.363304 6.19141 0.825328 6.17122L6.2007 5.93634C6.40114 5.92758 6.57693 5.79986 6.6472 5.61193L8.53167 0.572235Z" fill="currentColor"/>
</svg>
