<svg width="20" height="14" viewBox="0 0 20 14" fill="none" xmlns="http://www.w3.org/2000/svg">
<path d="M10.4388 13.9802L6.37656 13.9043C5.06131 13.8778 3.74279 13.9306 2.45333 13.6565C0.491769 13.247 0.352805 11.2391 0.207394 9.55486C0.00703182 7.18702 0.0845979 4.77621 0.462707 2.42813C0.676162 1.11061 1.51619 0.324442 2.81527 0.238892C7.20062 -0.0715831 11.6151 -0.0347886 15.9908 0.110059C16.4529 0.123338 16.9182 0.195914 17.3739 0.278524C19.6232 0.681442 19.678 2.95684 19.8238 4.8723C19.9692 6.80752 19.9078 8.75268 19.6299 10.6747C19.4069 12.2661 18.9803 13.6007 17.1799 13.7295C14.9242 13.898 12.7202 14.0336 10.4581 13.9904C10.4582 13.9802 10.4452 13.9802 10.4388 13.9802ZM8.05058 9.95119C9.75048 8.95378 11.4179 7.97299 13.1081 6.98227C11.4051 5.98486 9.74076 5.00407 8.05058 4.01335V9.95119Z" fill="currentColor"/>
</svg>
